<svg width="10" height="10" viewBox="0 0 10 10" fill="none" xmlns="http://www.w3.org/2000/svg">
<path d="M9.6 0H0.4C0.17875 0 0 0.17875 0 0.4V9.6C0 9.82125 0.17875 10 0.4 10H9.6C9.82125 10 10 9.82125 10 9.6V0.4C10 0.17875 9.82125 0 9.6 0ZM9.2 9.2H6.89875V6.1275H8.19875L8.39375 4.61875H6.89875V3.655C6.89875 3.2175 7.02 2.92 7.64625 2.92H8.445V1.57C8.30625 1.55125 7.8325 1.51 7.28 1.51C6.1275 1.51 5.33875 2.21375 5.33875 3.505V4.6175H4.03625V6.12625H5.34V9.2H0.8V0.8H9.2V9.2Z" fill="white"/>
</svg>
