<svg width="10" height="10" viewBox="0 0 10 10" fill="none" xmlns="http://www.w3.org/2000/svg">
<path d="M9.44992 0.550078C9.08304 0.183192 8.64157 0 8.12503 0H1.87497C1.35843 0 0.916963 0.183192 0.550078 0.550078C0.183192 0.916963 0 1.35843 0 1.87497V8.12503C0 8.64157 0.183192 9.08304 0.550078 9.44992C0.916963 9.81681 1.35843 10 1.87497 10H3.3335C3.4286 10 3.50017 9.9965 3.54823 9.98999C3.60413 9.97878 3.65459 9.94896 3.69138 9.9054C3.73893 9.85535 3.76295 9.78277 3.76295 9.68767L3.75945 9.24471C3.75745 8.96241 3.75644 8.73918 3.75644 8.574L3.60629 8.60003C3.51119 8.61755 3.39106 8.62506 3.24541 8.62305C3.09359 8.62025 2.94226 8.60502 2.79293 8.57751C2.63397 8.54816 2.48432 8.48123 2.35647 8.3823C2.22258 8.28101 2.12272 8.14134 2.07017 7.98188L2.00511 7.83172C1.95026 7.71327 1.88136 7.60186 1.79989 7.49987C1.70679 7.37825 1.61219 7.29616 1.51659 7.25261L1.47155 7.22008C1.44013 7.19758 1.41156 7.17137 1.38646 7.142C1.36248 7.11474 1.34273 7.08403 1.32789 7.0509C1.31488 7.02037 1.32589 6.99535 1.36043 6.97582C1.39547 6.9558 1.45803 6.94629 1.54963 6.94629L1.67976 6.96631C1.76635 6.98333 1.87397 7.03539 2.0016 7.12198C2.13077 7.21004 2.23866 7.3258 2.31743 7.46083C2.41754 7.63852 2.53766 7.77416 2.67881 7.86776C2.81996 7.96086 2.96211 8.00791 3.10526 8.00791C3.24841 8.00791 3.37204 7.9969 3.47665 7.97537C3.57781 7.95446 3.67611 7.92152 3.76946 7.87727C3.8085 7.58697 3.91461 7.36273 4.08829 7.20657C3.86324 7.1845 3.6402 7.14535 3.42109 7.08944C3.20726 7.0307 3.00162 6.94545 2.80895 6.83568C2.60736 6.72593 2.4293 6.57763 2.2849 6.39922C2.14625 6.22554 2.03213 5.9978 1.94304 5.716C1.85445 5.43371 1.8099 5.10786 1.8099 4.73898C1.8099 4.21392 1.98108 3.76696 2.32394 3.39757C2.16377 3.00315 2.17879 2.56019 2.36949 2.07017C2.49562 2.03063 2.68232 2.06016 2.92958 2.15777C3.17684 2.25537 3.35803 2.33896 3.47315 2.40803C3.58827 2.4781 3.68036 2.53666 3.74994 2.58421C4.15685 2.47097 4.57737 2.41405 4.99975 2.41504C5.4297 2.41504 5.84614 2.4716 6.25006 2.58421L6.49732 2.42805C6.68751 2.31386 6.88812 2.21799 7.09645 2.14175C7.32669 2.05466 7.50188 2.03113 7.624 2.07017C7.81921 2.56069 7.83623 3.00315 7.67556 3.39807C8.01842 3.76695 8.1901 4.21392 8.1901 4.73948C8.1901 5.10836 8.14555 5.43521 8.05646 5.719C7.96787 6.0033 7.85275 6.23104 7.7116 6.40272C7.56465 6.57885 7.38585 6.72573 7.18454 6.83568C6.97432 6.9528 6.77011 7.03739 6.5724 7.08944C6.35331 7.14553 6.13026 7.18485 5.9052 7.20707C6.13044 7.40227 6.24356 7.7101 6.24356 8.13104V9.68767C6.24356 9.76125 6.25407 9.82081 6.27609 9.86636C6.28621 9.8883 6.30065 9.90799 6.31853 9.92424C6.33642 9.94049 6.35739 9.95298 6.3802 9.96096C6.42825 9.97798 6.47029 9.98899 6.50733 9.99299C6.54437 9.998 6.59743 9.9995 6.6665 9.9995H8.12503C8.64157 9.9995 9.08304 9.81631 9.44992 9.44942C9.81631 9.08304 10 8.64107 10 8.12453V1.87497C10 1.35843 9.81681 0.916963 9.44992 0.550078Z" fill="white"/>
</svg>
