<svg width="1194" height="834" viewBox="0 0 1194 834" fill="none" xmlns="http://www.w3.org/2000/svg">
<rect width="1194" height="834" fill="white"/>
<path d="M1154.18 0C773.26 69.0179 476.304 914.584 0 554.843V831.685H1194V0H1154.18Z" fill="#A294FD"/>
<g filter="url(#filter0_i)">
<path d="M841.397 435.13C592.025 445.932 297.878 834 598.555 834H1193.07V96.4385C1079.89 141.957 1090.77 424.329 841.397 435.13Z" fill="#6A36FE"/>
</g>
<g filter="url(#filter1_i)">
<path d="M496.567 722.415C496.567 722.415 181.324 470.072 0 722.415V833.229H1194V722.415C1194 722.415 1162.9 505.843 943.63 722.415C724.362 938.988 496.567 722.415 496.567 722.415Z" fill="#0054FF"/>
</g>
<defs>
<filter id="filter0_i" x="471.275" y="96.4385" width="747.791" height="763.561" filterUnits="userSpaceOnUse" color-interpolation-filters="sRGB">
<feFlood flood-opacity="0" result="BackgroundImageFix"/>
<feBlend mode="normal" in="SourceGraphic" in2="BackgroundImageFix" result="shape"/>
<feColorMatrix in="SourceAlpha" type="matrix" values="0 0 0 0 0 0 0 0 0 0 0 0 0 0 0 0 0 0 127 0" result="hardAlpha"/>
<feOffset dx="36" dy="31"/>
<feGaussianBlur stdDeviation="13"/>
<feComposite in2="hardAlpha" operator="arithmetic" k2="-1" k3="1"/>
<feColorMatrix type="matrix" values="0 0 0 0 0 0 0 0 0 0 0 0 0 0 0 0 0 0 0.1 0"/>
<feBlend mode="normal" in2="shape" result="effect1_innerShadow"/>
</filter>
<filter id="filter1_i" x="0" y="610.263" width="1223" height="251.966" filterUnits="userSpaceOnUse" color-interpolation-filters="sRGB">
<feFlood flood-opacity="0" result="BackgroundImageFix"/>
<feBlend mode="normal" in="SourceGraphic" in2="BackgroundImageFix" result="shape"/>
<feColorMatrix in="SourceAlpha" type="matrix" values="0 0 0 0 0 0 0 0 0 0 0 0 0 0 0 0 0 0 127 0" result="hardAlpha"/>
<feOffset dx="32" dy="36"/>
<feGaussianBlur stdDeviation="14.5"/>
<feComposite in2="hardAlpha" operator="arithmetic" k2="-1" k3="1"/>
<feColorMatrix type="matrix" values="0 0 0 0 0 0 0 0 0 0 0 0 0 0 0 0 0 0 0.1 0"/>
<feBlend mode="normal" in2="shape" result="effect1_innerShadow"/>
</filter>
</defs>
</svg>
