<svg width="10" height="10" viewBox="0 0 10 10" fill="none" xmlns="http://www.w3.org/2000/svg">
<path fill-rule="evenodd" clip-rule="evenodd" d="M2.93864 0.03C3.47182 0.00545454 3.64182 0 5 0C6.35818 0 6.52818 0.00590908 7.06091 0.03C7.59364 0.0540909 7.95727 0.139091 8.27545 0.262273C8.60864 0.388182 8.91091 0.585 9.16091 0.839545C9.41545 1.08909 9.61182 1.39091 9.73727 1.72455C9.86091 2.04273 9.94545 2.40636 9.97 2.93818C9.99455 3.47227 10 3.64227 10 5C10 6.35818 9.99409 6.52818 9.97 7.06136C9.94591 7.59318 9.86091 7.95682 9.73727 8.275C9.61182 8.60868 9.41513 8.911 9.16091 9.16091C8.91091 9.41545 8.60864 9.61182 8.27545 9.73727C7.95727 9.86091 7.59364 9.94545 7.06182 9.97C6.52818 9.99455 6.35818 10 5 10C3.64182 10 3.47182 9.99409 2.93864 9.97C2.40682 9.94591 2.04318 9.86091 1.725 9.73727C1.39133 9.6118 1.08901 9.41512 0.839091 9.16091C0.584718 8.91121 0.38787 8.60904 0.262273 8.27545C0.139091 7.95727 0.0545455 7.59364 0.03 7.06182C0.00545454 6.52773 0 6.35773 0 5C0 3.64182 0.00590908 3.47182 0.03 2.93909C0.0540909 2.40636 0.139091 2.04273 0.262273 1.72455C0.388056 1.39095 0.585054 1.08878 0.839545 0.839091C1.08911 0.584773 1.39112 0.387929 1.72455 0.262273C2.04273 0.139091 2.40636 0.0545455 2.93818 0.03H2.93864ZM7.02045 0.93C6.49318 0.905909 6.335 0.900909 5 0.900909C3.665 0.900909 3.50682 0.905909 2.97955 0.93C2.49182 0.952273 2.22727 1.03364 2.05091 1.10227C1.81773 1.19318 1.65091 1.30091 1.47591 1.47591C1.31002 1.6373 1.18235 1.83376 1.10227 2.05091C1.03364 2.22727 0.952273 2.49182 0.93 2.97955C0.905909 3.50682 0.900909 3.665 0.900909 5C0.900909 6.335 0.905909 6.49318 0.93 7.02045C0.952273 7.50818 1.03364 7.77273 1.10227 7.94909C1.18227 8.16591 1.31 8.36273 1.47591 8.52409C1.63727 8.69 1.83409 8.81773 2.05091 8.89773C2.22727 8.96636 2.49182 9.04773 2.97955 9.07C3.50682 9.09409 3.66455 9.09909 5 9.09909C6.33545 9.09909 6.49318 9.09409 7.02045 9.07C7.50818 9.04773 7.77273 8.96636 7.94909 8.89773C8.18227 8.80682 8.34909 8.69909 8.52409 8.52409C8.69 8.36273 8.81773 8.16591 8.89773 7.94909C8.96636 7.77273 9.04773 7.50818 9.07 7.02045C9.09409 6.49318 9.09909 6.335 9.09909 5C9.09909 3.665 9.09409 3.50682 9.07 2.97955C9.04773 2.49182 8.96636 2.22727 8.89773 2.05091C8.80682 1.81773 8.69909 1.65091 8.52409 1.47591C8.36269 1.31003 8.16623 1.18237 7.94909 1.10227C7.77273 1.03364 7.50818 0.952273 7.02045 0.93ZM4.36136 6.54136C4.71803 6.68983 5.11517 6.70987 5.48497 6.59806C5.85476 6.48624 6.17427 6.24951 6.38891 5.92829C6.60356 5.60708 6.70003 5.2213 6.66184 4.83687C6.62365 4.45243 6.45318 4.09317 6.17955 3.82045C6.00511 3.64613 5.79419 3.51264 5.56197 3.42961C5.32975 3.34658 5.08201 3.31607 4.83659 3.34028C4.59116 3.36449 4.35416 3.44281 4.14264 3.5696C3.93112 3.6964 3.75034 3.86852 3.61332 4.07357C3.4763 4.27862 3.38645 4.5115 3.35023 4.75544C3.31402 4.99938 3.33234 5.24831 3.40388 5.48433C3.47542 5.72034 3.5984 5.93755 3.76396 6.12033C3.92953 6.30311 4.13356 6.4469 4.36136 6.54136ZM3.18273 3.18273C3.42138 2.94408 3.70469 2.75477 4.0165 2.62562C4.32831 2.49646 4.6625 2.42999 5 2.42999C5.3375 2.42999 5.67169 2.49646 5.9835 2.62562C6.29531 2.75477 6.57863 2.94408 6.81727 3.18273C7.05592 3.42138 7.24523 3.70469 7.37438 4.0165C7.50354 4.32831 7.57001 4.6625 7.57001 5C7.57001 5.3375 7.50354 5.67169 7.37438 5.9835C7.24523 6.29531 7.05592 6.57863 6.81727 6.81727C6.3353 7.29924 5.68161 7.57001 5 7.57001C4.31839 7.57001 3.6647 7.29924 3.18273 6.81727C2.70076 6.3353 2.42999 5.68161 2.42999 5C2.42999 4.31839 2.70076 3.6647 3.18273 3.18273ZM8.14 2.81273C8.19914 2.75694 8.24648 2.68986 8.27923 2.61544C8.31198 2.54103 8.32946 2.4608 8.33064 2.37951C8.33183 2.29822 8.31669 2.21752 8.28613 2.14219C8.25557 2.06685 8.2102 1.99841 8.15271 1.94093C8.09522 1.88344 8.02679 1.83807 7.95145 1.80751C7.87612 1.77694 7.79541 1.76181 7.71412 1.76299C7.63283 1.76418 7.55261 1.78166 7.47819 1.81441C7.40378 1.84715 7.3367 1.8945 7.28091 1.95364C7.17241 2.06865 7.11301 2.22142 7.11532 2.37951C7.11762 2.53761 7.18145 2.68858 7.29325 2.80038C7.40506 2.91218 7.55603 2.97601 7.71412 2.97832C7.87222 2.98062 8.02499 2.92122 8.14 2.81273Z" fill="white"/>
</svg>
