<svg width="8" height="8" viewBox="0 0 8 8" fill="none" xmlns="http://www.w3.org/2000/svg">
<path d="M4 0C1.79107 0 0 1.79107 0 4C0 6.20893 1.79107 8 4 8C6.20893 8 8 6.20893 8 4C8 1.79107 6.20893 0 4 0ZM4 7.32143C2.16607 7.32143 0.678571 5.83393 0.678571 4C0.678571 2.16607 2.16607 0.678571 4 0.678571C5.83393 0.678571 7.32143 2.16607 7.32143 4C7.32143 5.83393 5.83393 7.32143 4 7.32143ZM4.05 2.56518C4.52321 2.56518 4.84464 2.86696 4.88036 3.30982C4.88304 3.34732 4.91429 3.37589 4.95179 3.37589H5.45804C5.48125 3.37589 5.5 3.35714 5.5 3.33393C5.5 2.55982 4.88929 2.01786 4.04732 2.01786C3.06607 2.01786 2.5 2.68036 2.5 3.775V4.24196C2.5 5.32857 3.06607 5.98214 4.04732 5.98214C4.88661 5.98214 5.5 5.45714 5.5 4.71964C5.5 4.69643 5.48125 4.67768 5.45804 4.67768H4.95089C4.91339 4.67768 4.88304 4.70625 4.87946 4.74286C4.84196 5.15446 4.52143 5.4375 4.04911 5.4375C3.46607 5.4375 3.1375 5.00982 3.1375 4.24464V3.775C3.13839 2.99821 3.46786 2.56518 4.05 2.56518Z" fill="white"/>
</svg>
